<svg width="38" height="38" viewBox="0 0 38 38" fill="none" xmlns="http://www.w3.org/2000/svg">
<path d="M36.7301 25.791C36.7308 25.7841 36.7308 25.7771 36.7301 25.7702L34.2972 13.2763V13.2495C33.9217 11.1982 32.8391 9.34336 31.2377 8.00748C29.6363 6.67159 27.6174 5.93916 25.532 5.9375H12.4532C10.3619 5.9367 8.33733 6.6733 6.7355 8.01775C5.13367 9.3622 4.05719 11.2284 3.69537 13.2881L1.27435 25.7702C1.27366 25.7771 1.27366 25.7841 1.27435 25.791C1.07729 26.91 1.24201 28.0626 1.74458 29.0816C2.24716 30.1006 3.06144 30.9328 4.06919 31.4576C5.07694 31.9823 6.22571 32.1722 7.34871 31.9996C8.47171 31.827 9.51048 31.301 10.3142 30.498L10.3662 30.443L16.2576 23.75H21.7498L27.6443 30.443C27.6606 30.4623 27.6784 30.4802 27.6962 30.498C28.6979 31.4975 30.0545 32.06 31.4695 32.0625C32.2495 32.062 33.02 31.8907 33.7267 31.5608C34.4335 31.2308 35.0595 30.7501 35.5606 30.1524C36.0618 29.5547 36.4261 28.8546 36.6279 28.1011C36.8297 27.3477 36.8641 26.5592 36.7286 25.791H36.7301ZM15.4383 16.625H14.2508V17.8125C14.2508 18.1274 14.1256 18.4295 13.903 18.6522C13.6803 18.8749 13.3782 19 13.0633 19C12.7483 19 12.4463 18.8749 12.2236 18.6522C12.0009 18.4295 11.8758 18.1274 11.8758 17.8125V16.625H10.6883C10.3733 16.625 10.0713 16.4999 9.84857 16.2772C9.62587 16.0545 9.50076 15.7524 9.50076 15.4375C9.50076 15.1226 9.62587 14.8205 9.84857 14.5978C10.0713 14.3751 10.3733 14.25 10.6883 14.25H11.8758V13.0625C11.8758 12.7476 12.0009 12.4455 12.2236 12.2228C12.4463 12.0001 12.7483 11.875 13.0633 11.875C13.3782 11.875 13.6803 12.0001 13.903 12.2228C14.1256 12.4455 14.2508 12.7476 14.2508 13.0625V14.25H15.4383C15.7532 14.25 16.0553 14.3751 16.278 14.5978C16.5006 14.8205 16.6258 15.1226 16.6258 15.4375C16.6258 15.7524 16.5006 16.0545 16.278 16.2772C16.0553 16.4999 15.7532 16.625 15.4383 16.625ZM21.3758 15.4375C21.3758 15.1226 21.5009 14.8205 21.7236 14.5978C21.9463 14.3751 22.2483 14.25 22.5633 14.25H26.1258C26.4407 14.25 26.7428 14.3751 26.9655 14.5978C27.1882 14.8205 27.3133 15.1226 27.3133 15.4375C27.3133 15.7524 27.1882 16.0545 26.9655 16.2772C26.7428 16.4999 26.4407 16.625 26.1258 16.625H22.5633C22.2483 16.625 21.9463 16.4999 21.7236 16.2772C21.5009 16.0545 21.3758 15.7524 21.3758 15.4375ZM33.8994 28.4213C33.677 28.7416 33.3932 29.0145 33.0645 29.2242C32.7358 29.4339 32.3687 29.5762 31.9846 29.643C31.5199 29.7242 31.0425 29.6941 30.5917 29.555C30.1409 29.4159 29.7295 29.1719 29.3914 28.8429L24.9086 23.75H25.532C27.0481 23.7502 28.5391 23.3634 29.8639 22.6262C31.1887 21.889 32.3033 20.8258 33.1023 19.5373L34.3997 26.217C34.4657 26.5993 34.4555 26.9908 34.3697 27.3691C34.2838 27.7474 34.124 28.105 33.8994 28.4213Z" fill="#1746A2"/>
</svg>
