<svg width="37" height="34" viewBox="0 0 37 34" fill="none" xmlns="http://www.w3.org/2000/svg">
<path fill-rule="evenodd" clip-rule="evenodd" d="M8.21464 26.4283C7.90219 26.7409 7.72667 27.1647 7.72667 27.6067C7.72667 28.0486 7.90219 28.4724 8.21464 28.785C14.723 35.2933 25.2763 35.2933 31.7846 28.785C38.293 22.2767 38.293 11.7233 31.7846 5.21499C25.2763 -1.29334 14.723 -1.29334 8.21464 5.21499C5.49088 7.92993 3.79428 11.5064 3.41464 15.3333H1.66631C1.33673 15.3334 1.01456 15.4312 0.740547 15.6143C0.466531 15.7975 0.252965 16.0577 0.126848 16.3622C0.00073151 16.6667 -0.0322734 17.0018 0.0320058 17.325C0.0962851 17.6483 0.254962 17.9452 0.487978 18.1783L3.82131 21.5117L3.82464 21.515C3.97937 21.6697 4.16312 21.7924 4.36537 21.8759C4.56762 21.9594 4.78437 22.0022 5.00318 22.0017C5.222 22.0012 5.43857 21.9576 5.64046 21.8732C5.84235 21.7888 6.02558 21.6654 6.17964 21.51L9.51298 18.1783C9.74609 17.9451 9.90481 17.648 9.96903 17.3246C10.0333 17.0012 10.0001 16.666 9.87379 16.3615C9.74747 16.0569 9.53364 15.7966 9.25937 15.6136C8.9851 15.4306 8.6627 15.3331 8.33298 15.3333H6.76964C7.14646 12.3439 8.52469 9.57027 10.6797 7.46446C12.8347 5.35865 15.6395 4.04484 18.6368 3.73716C21.6341 3.42948 24.6472 4.14608 27.1851 5.77016C29.723 7.39424 31.636 9.83003 32.6123 12.6805C33.5886 15.5311 33.5706 18.6282 32.5613 21.4672C31.552 24.3062 29.6109 26.7196 27.0543 28.3141C24.4977 29.9086 21.4764 30.5902 18.4829 30.2477C15.4894 29.9053 12.7001 28.559 10.5696 26.4283C10.2572 26.1164 9.83368 25.9412 9.39214 25.9412C8.95061 25.9412 8.52712 26.1164 8.21464 26.4283ZM16.6663 10.3333C16.6663 9.8913 16.8419 9.46737 17.1545 9.15481C17.467 8.84225 17.891 8.66666 18.333 8.66666C18.775 8.66666 19.1989 8.84225 19.5115 9.15481C19.8241 9.46737 19.9996 9.8913 19.9996 10.3333V17H26.6663C27.1083 17 27.5323 17.1756 27.8448 17.4881C28.1574 17.8007 28.333 18.2246 28.333 18.6667C28.333 19.1087 28.1574 19.5326 27.8448 19.8452C27.5323 20.1577 27.1083 20.3333 26.6663 20.3333H18.333C17.891 20.3333 17.467 20.1577 17.1545 19.8452C16.8419 19.5326 16.6663 19.1087 16.6663 18.6667V10.3333Z" fill="#1746A2"/>
</svg>
