<svg width="35" height="34" viewBox="0 0 35 34" fill="none" xmlns="http://www.w3.org/2000/svg">
<path d="M19.6488 1.23741C19.0344 0.759482 18.2782 0.5 17.4998 0.5C16.7214 0.5 15.9653 0.759482 15.3509 1.23741L0.679168 12.6472C-0.636805 13.6744 0.0876797 15.7831 1.7554 15.7831H3.50011V29.7828C3.50011 30.7111 3.86885 31.6013 4.52522 32.2577C5.18158 32.914 6.0718 33.2828 7.00004 33.2828H13.9999V22.783C13.9999 21.8547 14.3686 20.9645 15.025 20.3082C15.6814 19.6518 16.5716 19.283 17.4998 19.283C18.4281 19.283 19.3183 19.6518 19.9747 20.3082C20.631 20.9645 20.9998 21.8547 20.9998 22.783V33.2828H27.9996C28.9279 33.2828 29.8181 32.914 30.4744 32.2577C31.1308 31.6013 31.4995 30.7111 31.4995 29.7828V15.7831H33.2443C34.9102 15.7831 35.6382 13.6744 34.3205 12.6489L19.6488 1.23741Z" fill="#1746A2"/>
</svg>
