<svg width="41" height="40" viewBox="0 0 41 40" fill="none" xmlns="http://www.w3.org/2000/svg">
<path fill-rule="evenodd" clip-rule="evenodd" d="M20.6666 3.33337C22.8553 3.33336 25.0226 3.76445 27.0447 4.60202C29.0668 5.4396 30.9041 6.66725 32.4518 8.21489C33.9994 9.76253 35.2271 11.5999 36.0647 13.622C36.9023 15.644 37.3334 17.8113 37.3334 20C37.3334 29.2048 29.8714 36.6667 20.6666 36.6667C11.462 36.6667 4 29.2048 4 20C4 10.7953 11.462 3.33337 20.6666 3.33337ZM22.3334 21.6667H19C14.8738 21.6667 11.3314 24.1657 9.80352 27.733C12.221 31.1229 16.1857 33.3334 20.6666 33.3334C25.1476 33.3334 29.1123 31.1229 31.5298 27.7327C30.002 24.1657 26.4595 21.6667 22.3334 21.6667ZM20.6666 8.33337C17.9052 8.33337 15.6666 10.572 15.6666 13.3334C15.6666 16.0948 17.9052 18.3334 20.6666 18.3334C23.428 18.3334 25.6666 16.0948 25.6666 13.3334C25.6666 10.572 23.4281 8.33337 20.6666 8.33337Z" fill="#1746A2"/>
</svg>
